<svg id="Layer_1" data-name="Layer 1" xmlns="http://www.w3.org/2000/svg" viewBox="0 0 101 101"><path d="M89.78 38.48a12.37 12.37 0 00-5.42 1.32 31.82 31.82 0 00.64-6.3 1.5 1.5 0 00-1.5-1.5h-60a1.5 1.5 0 00-1.5 1.5 31.2 31.2 0 007.65 20.58 19.63 19.63 0 00-14.51 11.5 14.25 14.25 0 00-7 9.7 1.5 1.5 0 00.42 1.27l7.63 7.63a1.5 1.5 0 001.78.26l9.89-5.36L37.84 77H51l9.86 2.06 9.93 5.39a1.5 1.5 0 001.78-.26l7.63-7.63a1.5 1.5 0 00.42-1.27 14.25 14.25 0 00-6.9-9.64 20.55 20.55 0 00-3.52-5.46 31.59 31.59 0 002.61-1.8l.49-.39c3-2.25 6.3-1.56 10.1-.75a30.45 30.45 0 006.33.88 9.8 9.8 0 000-19.6zM82 35a28.44 28.44 0 01-2.06 9.27A28.08 28.08 0 0167.95 58a20.87 20.87 0 00-10.82-4.3 15.85 15.85 0 00-12.77-6.88 15.13 15.13 0 00-11.91 5.84A28.2 28.2 0 0125 35zM50 74H38.87l-4.65-18.61a12.12 12.12 0 0110.14-5.53 13 13 0 0110.28 5.55zM31.47 56.79l4.39 17.55L28.07 76l-9.87-9.89c1.91-3.88 5.72-8.23 13.27-9.32zm-14 24.48L11.26 75a11.32 11.32 0 015-6.62L25 77.2zm60-6.26l-6.26 6.26-7.48-4.05 8.8-8.8A11.26 11.26 0 0177.51 75zM60.78 76L53 74.35l4.39-17.55c7.55 1.09 11.36 5.43 13.26 9.31zm29-20.89a28.23 28.23 0 01-5.71-.81 28 28 0 00-6.17-.84 31.17 31.17 0 004.77-8c1-2.22 4.08-4 7.12-4a6.8 6.8 0 010 13.6zM50.8 10.65c-2.16 1.76-4.84 4-4.84 8.64C46 25.58 52 28.38 55.22 29h.28a1.5 1.5 0 00.28-3C55.5 26 49 24.66 49 19.29c0-3.29 1.69-4.68 3.69-6.29 1.79-1.46 3.82-3.12 3.82-6.14a6.25 6.25 0 00-1.82-4.68 8 8 0 00-5.44-2 1.5 1.5 0 00.05 3 5.21 5.21 0 013.28 1.15 3.34 3.34 0 01.9 2.52c.03 1.51-.95 2.39-2.68 3.8z"/></svg>