<svg xmlns="http://www.w3.org/2000/svg" xmlns:xlink="http://www.w3.org/1999/xlink" width="19pt" height="14pt" viewBox="0 0 19 14"><defs><linearGradient id="linear0" gradientUnits="userSpaceOnUse" x1=".5" y1="0" x2=".5" y2="1" gradientTransform="scale(19 14)"><stop offset="0" stop-color="#e52d27"/><stop offset="1" stop-color="#bf171d"/></linearGradient><clipPath id="clip1"><path d="M0 0h19v14H0z"/></clipPath><filter id="alpha" filterUnits="objectBoundingBox" x="0%" y="0%" width="100%" height="100%"><feColorMatrix in="SourceGraphic" values="0 0 0 0 1 0 0 0 0 1 0 0 0 0 1 0 0 0 1 0"/></filter><mask id="mask0"><g filter="url(#alpha)"><path fill-opacity=".122" d="M0 0h19v14H0z"/></g></mask><g id="surface5" clip-path="url(#clip1)"><path d="M7.54 3.988l4.507 3.153.629-.344zm0 0" fill="#420000"/></g></defs><g id="surface1"><path d="M7.54 9.582l5.136-2.785-5.137-2.809zm0 0" fill="#fff"/><use xlink:href="#surface5" mask="url(#mask0)"/><path d="M18.8 3.02s-.187-1.372-.757-1.977C17.324.25 16.516.25 16.137.203 13.488 0 9.504 0 9.504 0h-.008S5.512 0 2.848.203C2.477.25 1.668.25.94 1.043.38 1.648.191 3.02.191 3.02S0 4.637 0 6.246v1.508c0 1.61.191 3.219.191 3.219s.188 1.37.758 1.976c.719.793 1.668.77 2.094.848 1.52.156 6.453.203 6.453.203s3.992-.008 6.649-.21c.37-.048 1.18-.048 1.906-.84.57-.606.758-1.977.758-1.977S19 9.363 19 7.753V6.247c-.008-1.61-.2-3.226-.2-3.226zM7.54 9.582V3.988l5.132 2.809zm0 0" fill="url(#linear0)"/></g></svg>