<svg xmlns="http://www.w3.org/2000/svg" width="16pt" height="16pt" viewBox="0 0 16 16"><g id="surface1"><path d="M8 16A8 8 0 108 0a8 8 0 000 16zm0 0" fill="#25d366"/><path d="M8.266 12.45h-.004a4.75 4.75 0 01-2.274-.579l-2.523.664.676-2.469a4.76 4.76 0 014.12-7.132 4.73 4.73 0 013.368 1.394 4.727 4.727 0 011.39 3.367 4.76 4.76 0 01-4.753 4.754zm-2.16-1.438l.144.086c.605.359 1.3.55 2.012.55h.004a3.963 3.963 0 003.953-3.953c0-1.058-.41-2.05-1.156-2.8a3.94 3.94 0 00-2.797-1.157 3.964 3.964 0 00-3.957 3.953c0 .747.21 1.473.605 2.102l.094.152-.399 1.457zm4.39-2.293c.086.039.14.066.164.105.031.051.031.29-.07.567-.098.277-.574.53-.8.566a1.689 1.689 0 01-.75-.047 6.246 6.246 0 01-.677-.254c-1.113-.48-1.867-1.558-2.011-1.761a.147.147 0 00-.02-.032c-.062-.086-.484-.648-.484-1.23 0-.547.27-.832.39-.965a.445.445 0 01.34-.176c.082 0 .16 0 .23.004h.024c.07 0 .156 0 .242.207.035.078.082.195.133.317.102.25.215.523.234.566.032.059.051.129.008.207a.695.695 0 01-.117.2c-.02.023-.039.046-.062.07-.04.05-.079.101-.118.136-.058.059-.12.125-.05.242.07.118.308.508.66.825.383.34.71.48.879.554a.505.505 0 01.078.035c.117.06.187.051.258-.03.07-.079.296-.348.375-.466.082-.12.16-.097.27-.058.108.039.69.324.812.386.023.012.043.02.062.032zm0 0" fill-rule="evenodd" fill="#fdfdfd"/></g></svg>