<svg xmlns="http://www.w3.org/2000/svg" width="16pt" height="16pt" viewBox="0 0 16 16"><g id="surface1"><path d="M8 .27a7.73 7.73 0 00-3.102 14.812c-.023-.539-.003-1.187.133-1.773l.996-4.215s-.246-.492-.246-1.223c0-1.144.664-2 1.492-2 .7 0 1.04.527 1.04 1.16 0 .707-.45 1.762-.68 2.742-.196.82.41 1.489 1.219 1.489 1.464 0 2.449-1.88 2.449-4.11 0-1.695-1.14-2.965-3.215-2.965-2.348 0-3.805 1.75-3.805 3.704 0 .675.196 1.148.508 1.52.145.167.164.234.11.429l-.157.62c-.05.196-.21.267-.387.192-1.082-.441-1.582-1.62-1.582-2.953 0-2.195 1.852-4.832 5.528-4.832 2.949 0 4.894 2.137 4.894 4.43 0 3.035-1.687 5.3-4.172 5.3-.835 0-1.62-.452-1.89-.96 0 0-.45 1.781-.543 2.125-.164.593-.485 1.191-.777 1.656A7.732 7.732 0 0015.735 8 7.733 7.733 0 008 .27" fill-rule="evenodd" fill="#cb0006"/><path d="M8 .27a7.73 7.73 0 00-3.102 14.812c-.023-.539-.003-1.187.133-1.773l.996-4.215s-.246-.492-.246-1.223c0-1.144.664-2 1.492-2 .7 0 1.04.527 1.04 1.16 0 .707-.45 1.762-.68 2.742-.195.82.41 1.489 1.219 1.489 1.464 0 2.449-1.88 2.449-4.11 0-1.695-1.14-2.964-3.215-2.964-2.348 0-3.805 1.75-3.805 3.703 0 .675.196 1.148.508 1.52.145.167.164.234.11.429a71.73 71.73 0 01-.157.621c-.05.195-.21.266-.387.191-1.082-.441-1.582-1.62-1.582-2.953 0-2.195 1.852-4.832 5.528-4.832 2.949 0 4.894 2.137 4.894 4.43 0 3.035-1.687 5.3-4.172 5.3-.835 0-1.62-.452-1.89-.96 0 0-.45 1.781-.543 2.125-.164.593-.485 1.191-.777 1.656A7.732 7.732 0 0015.735 8 7.733 7.733 0 008 .27zm0 0" fill="none" stroke-width=".533" stroke="#000"/></g></svg>